<svg width="30" height="30" viewBox="0 0 30 30" fill="none" xmlns="http://www.w3.org/2000/svg">
<path fill-rule="evenodd" clip-rule="evenodd" d="M0 15C0 6.71573 6.71573 0 15 0C23.2843 0 30 6.71573 30 15C30 23.2843 23.2843 30 15 30C6.71573 30 0 23.2843 0 15ZM15 3C8.37258 3 3 8.37258 3 15C3 21.6274 8.37258 27 15 27C21.6274 27 27 21.6274 27 15C27 8.37258 21.6274 3 15 3ZM14.5607 9.43934C15.1464 10.0251 15.1464 10.9749 14.5607 11.5607L12.6213 13.5H21C21.8284 13.5 22.5 14.1716 22.5 15C22.5 15.8284 21.8284 16.5 21 16.5H12.6213L14.5607 18.4393C15.1464 19.0251 15.1464 19.9749 14.5607 20.5607C13.9749 21.1464 13.0251 21.1464 12.4393 20.5607L7.93934 16.0607C7.35355 15.4749 7.35355 14.5251 7.93934 13.9393L12.4393 9.43934C13.0251 8.85355 13.9749 8.85355 14.5607 9.43934Z" fill="white"/>
</svg>